<mxfile host="app.diagrams.net" modified="2023-09-28T18:11:57.827Z" agent="Mozilla/5.0 (X11; Linux x86_64; rv:109.0) Gecko/20100101 Firefox/114.0" etag="qkw3Ru0wv0AY5HgPWeH5" version="21.8.2" type="github">
  <diagram name="PÃ¡gina-1" id="HCHrNYl30tXwelg6hYeL">
    <mxGraphModel dx="1434" dy="795" grid="1" gridSize="10" guides="1" tooltips="1" connect="1" arrows="1" fold="1" page="1" pageScale="1" pageWidth="827" pageHeight="1169" math="0" shadow="0">
      <root>
        <mxCell id="0" />
        <mxCell id="1" parent="0" />
        <mxCell id="XdnwhCygg9N6XGbP2J52-7" style="edgeStyle=orthogonalEdgeStyle;rounded=0;orthogonalLoop=1;jettySize=auto;html=1;exitX=0.5;exitY=1;exitDx=0;exitDy=0;entryX=0.5;entryY=0;entryDx=0;entryDy=0;endArrow=none;endFill=0;" edge="1" parent="1" source="XdnwhCygg9N6XGbP2J52-1" target="XdnwhCygg9N6XGbP2J52-5">
          <mxGeometry relative="1" as="geometry" />
        </mxCell>
        <mxCell id="XdnwhCygg9N6XGbP2J52-1" value="Camionero" style="rounded=0;whiteSpace=wrap;html=1;fillColor=#fff2cc;strokeColor=#d6b656;" vertex="1" parent="1">
          <mxGeometry x="120" y="200" width="80" height="40" as="geometry" />
        </mxCell>
        <mxCell id="XdnwhCygg9N6XGbP2J52-2" value="&lt;div&gt;Paquetes&lt;/div&gt;" style="whiteSpace=wrap;html=1;fillColor=#fff2cc;strokeColor=#d6b656;" vertex="1" parent="1">
          <mxGeometry x="120" y="480" width="80" height="40" as="geometry" />
        </mxCell>
        <mxCell id="XdnwhCygg9N6XGbP2J52-9" style="edgeStyle=orthogonalEdgeStyle;rounded=0;orthogonalLoop=1;jettySize=auto;html=1;exitX=0;exitY=0.5;exitDx=0;exitDy=0;entryX=1;entryY=0.5;entryDx=0;entryDy=0;endArrow=none;endFill=0;" edge="1" parent="1" source="XdnwhCygg9N6XGbP2J52-3" target="XdnwhCygg9N6XGbP2J52-4">
          <mxGeometry relative="1" as="geometry" />
        </mxCell>
        <mxCell id="XdnwhCygg9N6XGbP2J52-3" value="Camiones" style="whiteSpace=wrap;html=1;fillColor=#fff2cc;strokeColor=#d6b656;" vertex="1" parent="1">
          <mxGeometry x="400" y="200" width="80" height="40" as="geometry" />
        </mxCell>
        <mxCell id="XdnwhCygg9N6XGbP2J52-8" style="edgeStyle=orthogonalEdgeStyle;rounded=0;orthogonalLoop=1;jettySize=auto;html=1;exitX=0;exitY=0.5;exitDx=0;exitDy=0;entryX=1;entryY=0.5;entryDx=0;entryDy=0;endArrow=none;endFill=0;" edge="1" parent="1" source="XdnwhCygg9N6XGbP2J52-4" target="XdnwhCygg9N6XGbP2J52-1">
          <mxGeometry relative="1" as="geometry" />
        </mxCell>
        <mxCell id="XdnwhCygg9N6XGbP2J52-4" value="&lt;div&gt;Conduce&lt;/div&gt;" style="rhombus;whiteSpace=wrap;html=1;fillColor=#dae8fc;strokeColor=#6c8ebf;" vertex="1" parent="1">
          <mxGeometry x="260" y="195" width="70" height="50" as="geometry" />
        </mxCell>
        <mxCell id="XdnwhCygg9N6XGbP2J52-6" style="edgeStyle=orthogonalEdgeStyle;rounded=0;orthogonalLoop=1;jettySize=auto;html=1;exitX=0.5;exitY=1;exitDx=0;exitDy=0;entryX=0.5;entryY=0;entryDx=0;entryDy=0;endArrow=none;endFill=0;" edge="1" parent="1" source="XdnwhCygg9N6XGbP2J52-5" target="XdnwhCygg9N6XGbP2J52-2">
          <mxGeometry relative="1" as="geometry" />
        </mxCell>
        <mxCell id="XdnwhCygg9N6XGbP2J52-5" value="&lt;div&gt;Reparte&lt;/div&gt;" style="rhombus;whiteSpace=wrap;html=1;fillColor=#dae8fc;strokeColor=#6c8ebf;" vertex="1" parent="1">
          <mxGeometry x="125" y="340" width="70" height="50" as="geometry" />
        </mxCell>
      </root>
    </mxGraphModel>
  </diagram>
</mxfile>
